<svg width="196" height="43" viewBox="0 0 196 43" fill="none" xmlns="http://www.w3.org/2000/svg">
<g clip-path="url(#clip0_338_22884)">
<path d="M47 26.0678V13.3719H54.3007C55.5386 13.3719 56.5127 13.6778 57.2258 14.2922C57.9362 14.9066 58.2941 15.7464 58.2941 16.8115C58.2941 17.8766 57.9497 18.8076 57.2608 19.4918C56.5719 20.1733 55.6543 20.5167 54.5106 20.5167H48.5823V26.0704H47.0027L47 26.0678ZM48.5796 19.0303H54.1984C54.9977 19.0303 55.6031 18.8532 56.0149 18.5018C56.4266 18.1503 56.6311 17.6325 56.6311 16.9483C56.6311 16.2642 56.4266 15.7625 56.0149 15.3895C55.6031 15.0166 55.0246 14.8315 54.2792 14.8315H48.5796V19.0303Z" fill="white"/>
<path d="M64.0664 21.7777V26.0678H62.5217V16.2695H69.3031C70.3095 16.2695 71.098 16.511 71.6685 16.9939C72.2363 17.4769 72.5215 18.1476 72.5215 19.0062C72.5215 19.7038 72.2955 20.3074 71.8461 20.8172C71.3967 21.3269 70.81 21.6382 70.0861 21.7535L72.8202 26.0651H71.1464L68.3558 21.775H64.0637L64.0664 21.7777ZM64.0664 20.3396H69.3031C69.8332 20.3396 70.2395 20.2242 70.5194 19.9935C70.7993 19.7628 70.9392 19.4328 70.9392 19.0035C70.9392 18.5742 70.7993 18.2469 70.5194 18.0188C70.2395 17.7935 69.8332 17.6808 69.3031 17.6808H64.0664V20.3369V20.3396Z" fill="white"/>
<path d="M79.6123 25.7378C79.4724 25.7485 78.2614 25.8102 77.5133 24.898C77.1635 24.4687 77.0612 24.0072 77.0262 23.7577C77.0128 22.8053 77.002 21.8528 76.9886 20.9004C76.9939 19.7601 77.002 18.6198 77.0074 17.4822C77.0801 17.2622 77.2281 16.9269 77.5321 16.6237C78.1215 16.0388 78.9395 16.0039 79.4051 15.9878C81.3103 15.9208 82.524 15.9959 83.603 16.0012C85.624 16.0093 86.3694 16.0603 87.8575 16.1622C88.1508 16.1837 88.6998 16.2293 89.0954 16.6237C89.4479 16.9778 89.5636 17.4474 89.5582 18.212C89.5529 19.2262 89.5502 20.243 89.5448 21.2572V23.8543C89.5233 24.0314 89.4318 24.5814 88.9635 25.0509C88.4038 25.609 87.7122 25.6439 87.5588 25.6492C84.9109 25.6814 82.2629 25.7109 79.6123 25.7431V25.7378ZM87.4404 23.8892C87.4404 21.8367 87.4377 19.7842 87.435 17.7318H79.2086V23.8892C81.9535 23.8892 84.6956 23.8892 87.4404 23.8892Z" fill="white"/>
<path d="M99.558 21.614V20.2001C101.576 20.2001 103.597 20.2001 105.615 20.1974V24.1843C105.438 24.509 105.11 24.9946 104.542 25.3299C103.915 25.7029 103.29 25.7163 102.97 25.7217C99.5957 25.7673 95.9036 25.7297 95.6964 25.727C95.2981 25.7378 94.7169 25.6841 94.2729 25.3031C93.5947 24.7209 93.6459 23.7228 93.7105 21.6543C93.7347 20.8574 93.775 19.465 93.81 17.6191C93.8585 17.3025 93.9849 16.8222 94.3724 16.4735C94.7277 16.1542 95.1528 16.0817 96.2454 16.0254C96.8939 15.9932 97.7227 15.9691 98.6942 15.9878C100.457 16.0227 100.465 15.9691 102.117 16.0254C104.208 16.0978 104.553 16.2052 104.859 16.46C105.599 17.0744 105.669 18.1476 105.659 18.7137C104.87 18.7191 104.082 18.7218 103.29 18.7271C103.285 18.3784 103.282 18.0296 103.277 17.6808H98.4924C97.572 17.6754 96.6517 17.6727 95.7314 17.6674C95.7233 18.9552 95.7152 20.2403 95.7072 21.5282C95.6964 22.3465 95.6856 23.1648 95.6749 23.9831C97.1765 24.0582 98.7695 24.0904 100.441 24.0582C101.474 24.0394 102.475 23.9938 103.438 23.9348C103.447 23.1621 103.455 22.3894 103.463 21.6194C102.16 21.6194 100.855 21.6194 99.5526 21.6194L99.558 21.614Z" fill="white"/>
<path d="M110.895 21.7777V26.0678H109.351V16.2695H116.132C117.138 16.2695 117.927 16.511 118.497 16.9939C119.065 17.4769 119.35 18.1476 119.35 19.0062C119.35 19.7038 119.124 20.3074 118.675 20.8172C118.226 21.3269 117.639 21.6382 116.915 21.7535L119.649 26.0651H117.975L115.185 21.775H110.893L110.895 21.7777ZM110.895 20.3396H116.132C116.662 20.3396 117.068 20.2242 117.348 19.9935C117.628 19.7628 117.768 19.4328 117.768 19.0035C117.768 18.5742 117.628 18.2469 117.348 18.0188C117.068 17.7935 116.662 17.6808 116.132 17.6808H110.895V20.3369V20.3396Z" fill="white"/>
<path d="M122.079 26.0678L127.084 16.2454H128.053L133.107 26.0678H131.457L130.176 23.5726H124.975L123.704 26.0678H122.079ZM125.645 22.274H129.498L127.582 18.5125L125.645 22.274Z" fill="white"/>
<path d="M136.815 26.0678V16.2454H138.096L142.132 21.995L146.169 16.2454H147.45V26.0678H145.916V19.0062L142.132 24.4687L138.36 19.0062V26.0678H136.815Z" fill="white"/>
<path d="M155.404 26.0678L151.252 13.3719H152.81L155.97 23.1701L159.212 13.3719H160.63L163.86 23.1487L167.032 13.3719H168.545L164.403 26.0678H163.249L159.893 15.843L156.57 26.0678H155.404Z" fill="white"/>
<path d="M171.803 26.0678V16.2454H181.044V17.6835H173.351V20.133H178.402V21.547H173.351V24.6512H181.472V26.0651H171.806L171.803 26.0678Z" fill="white"/>
<path d="M185.928 26.0678V16.2695H191.983C192.982 16.2695 193.74 16.4735 194.254 16.8839C194.771 17.2944 195.027 17.8981 195.027 18.695C195.027 19.0947 194.946 19.4489 194.785 19.7601C194.623 20.0713 194.389 20.3208 194.08 20.514C194.626 20.8199 195.038 21.1955 195.315 21.6355C195.592 22.0755 195.729 22.5718 195.729 23.1245C195.729 24.0368 195.422 24.7558 194.812 25.2817C194.201 25.8075 193.356 26.0704 192.279 26.0704H185.923L185.928 26.0678ZM191.938 17.6835H187.473V19.9962H191.962C192.454 19.9962 192.826 19.8996 193.076 19.7038C193.326 19.5079 193.45 19.2181 193.45 18.8345C193.45 18.4508 193.323 18.1637 193.076 17.9732C192.826 17.7827 192.446 17.6862 191.94 17.6862L191.938 17.6835ZM192.457 21.4316H187.473V24.6512H192.457C192.995 24.6512 193.412 24.509 193.708 24.2246C194.004 23.9402 194.152 23.5431 194.152 23.028C194.152 22.5128 194.004 22.1292 193.708 21.8501C193.412 21.5711 192.995 21.4316 192.457 21.4316Z" fill="white"/>
<path d="M47 34.2374V30.6288H47.574V34.2374H47Z" fill="white"/>
<path d="M51.176 34.2374V30.6369H51.4711L53.7642 33.1669V30.6369H54.3167V34.2374H54.0217L51.7339 31.7154V34.2374H51.176Z" fill="white"/>
<path d="M57.908 34.2374V30.6369H58.2031L60.4962 33.1669V30.6369H61.0487V34.2374H60.7537L58.4659 31.7154V34.2374H57.908Z" fill="white"/>
<path d="M66.5309 34.3501C65.8899 34.3501 65.3615 34.1677 64.9485 33.8055C64.5354 33.4433 64.3289 32.9871 64.3289 32.4398C64.3289 31.8925 64.5354 31.4337 64.9485 31.0769C65.3615 30.7174 65.8899 30.5403 66.5336 30.5403C67.1773 30.5403 67.7164 30.72 68.1267 31.0769C68.5371 31.4337 68.7463 31.8898 68.7463 32.4425C68.7463 32.9952 68.5398 33.4486 68.1267 33.8108C67.7137 34.173 67.1826 34.3528 66.5363 34.3528L66.5309 34.3501ZM66.5309 33.8242C67.011 33.8242 67.4053 33.6955 67.7083 33.4352C68.0114 33.175 68.1643 32.8449 68.1643 32.4425C68.1643 32.0401 68.0114 31.7127 67.7057 31.4525C67.3999 31.1922 67.0083 31.0608 66.5309 31.0608C66.0535 31.0608 65.6619 31.1896 65.3588 31.4498C65.0558 31.7101 64.9056 32.0401 64.9056 32.4425C64.9056 32.8449 65.0558 33.175 65.3588 33.4352C65.6619 33.6955 66.0508 33.8242 66.5309 33.8242Z" fill="white"/>
<path d="M73.5847 34.2374H73.2924L71.482 30.6369H72.0828L73.4372 33.3306L74.7702 30.6369H75.3898L73.5821 34.2374H73.5847Z" fill="white"/>
<path d="M77.4067 34.2374L79.2386 30.6369H79.5926L81.4405 34.2374H80.8371L80.3677 33.3225H78.4634L77.9994 34.2374H77.404H77.4067ZM78.7102 32.8449H80.121L79.4209 31.4659L78.7129 32.8449H78.7102Z" fill="white"/>
<path d="M84.879 34.2374V31.1386H83.3582V30.6369H86.9629V31.1386H85.4395V34.2374H84.879Z" fill="white"/>
<path d="M89.8837 34.2374V30.6288H90.4577V34.2374H89.8837Z" fill="white"/>
<path d="M95.6234 34.2374H95.331L93.5206 30.6369H94.1214L95.4759 33.3306L96.8089 30.6369H97.4284L95.6207 34.2374H95.6234Z" fill="white"/>
<path d="M100.483 34.2374V30.6369H103.865V31.1654H101.049V32.0642H102.897V32.582H101.049V33.7196H104.021V34.2374H100.483Z" fill="white"/>
<path d="M114.017 30.6369C114.604 30.6369 115.079 30.8059 115.439 31.1413C115.798 31.4766 115.978 31.914 115.978 32.4506C115.978 32.9871 115.801 33.4272 115.447 33.7518C115.093 34.0764 114.615 34.2374 114.014 34.2374H112.413V30.6369H114.014H114.017ZM114.025 31.1547H112.982V33.7196H114.025C114.454 33.7196 114.789 33.6042 115.034 33.3762C115.278 33.1481 115.401 32.8369 115.401 32.4425C115.401 32.0481 115.275 31.753 115.02 31.5142C114.768 31.2754 114.435 31.1547 114.025 31.1547Z" fill="white"/>
<path d="M119.231 34.2374V30.6288H119.805V34.2374H119.231Z" fill="white"/>
<path d="M125.845 32.8369V32.3191H127.331V33.4084C127.122 33.7169 126.851 33.953 126.516 34.1113C126.18 34.2723 125.791 34.3528 125.352 34.3528C124.686 34.3528 124.145 34.173 123.721 33.8162C123.3 33.4567 123.088 33.0032 123.088 32.4532C123.088 31.9032 123.3 31.4471 123.726 31.0849C124.15 30.7227 124.692 30.543 125.352 30.543C125.767 30.543 126.137 30.6154 126.459 30.7576C126.781 30.8998 127.049 31.1117 127.264 31.3908L126.829 31.702C126.676 31.5035 126.47 31.3452 126.21 31.2325C125.95 31.1198 125.663 31.0608 125.352 31.0608C124.858 31.0608 124.456 31.1922 124.139 31.4525C123.823 31.7127 123.667 32.0454 123.667 32.4425C123.667 32.8396 123.825 33.1723 124.139 33.4325C124.453 33.6928 124.858 33.8242 125.354 33.8242C125.663 33.8242 125.95 33.7679 126.212 33.6552C126.475 33.5425 126.66 33.4003 126.762 33.2259V32.8369H125.845Z" fill="white"/>
<path d="M130.724 34.2374V30.6288H131.298V34.2374H130.724Z" fill="white"/>
<path d="M135.747 34.2374V31.1386H134.227V30.6369H137.831V31.1386H136.308V34.2374H135.747Z" fill="white"/>
<path d="M139.746 34.2374L141.578 30.6369H141.932L143.78 34.2374H143.177L142.707 33.3225H140.803L140.339 34.2374H139.744H139.746ZM141.05 32.8449H142.46L141.76 31.4659L141.052 32.8449H141.05Z" fill="white"/>
<path d="M146.669 34.2374V30.6369H147.235V33.7196H149.911V34.2374H146.669Z" fill="white"/>
<path d="M157.448 34.2374L159.28 30.6369H159.634L161.484 34.2374H160.881L160.412 33.3225H158.507L158.043 34.2374H157.448ZM158.751 32.8449H160.162L159.462 31.4659L158.754 32.8449H158.751Z" fill="white"/>
<path d="M166.822 32.8369V32.3191H168.308V33.4084C168.098 33.7169 167.828 33.953 167.492 34.1113C167.157 34.2723 166.768 34.3528 166.328 34.3528C165.663 34.3528 165.121 34.173 164.698 33.8162C164.276 33.4567 164.065 33.0032 164.065 32.4532C164.065 31.9032 164.276 31.4471 164.703 31.0849C165.127 30.7227 165.668 30.543 166.328 30.543C166.744 30.543 167.114 30.6154 167.436 30.7576C167.758 30.8998 168.026 31.1117 168.241 31.3908L167.806 31.702C167.653 31.5035 167.447 31.3452 167.187 31.2325C166.926 31.1198 166.639 31.0608 166.328 31.0608C165.835 31.0608 165.432 31.1922 165.116 31.4525C164.799 31.7127 164.644 32.0454 164.644 32.4425C164.644 32.8396 164.802 33.1723 165.116 33.4325C165.43 33.6928 165.835 33.8242 166.328 33.8242C166.637 33.8242 166.924 33.7679 167.187 33.6552C167.449 33.5425 167.634 33.4003 167.736 33.2259V32.8369H166.822Z" fill="white"/>
<path d="M171.69 34.2374V30.6369H175.072V31.1654H172.256V32.0642H174.104V32.582H172.256V33.7196H175.227V34.2374H171.69Z" fill="white"/>
<path d="M178.39 34.2374V30.6369H178.685L180.978 33.1669V30.6369H181.53V34.2374H181.235L178.947 31.7154V34.2374H178.39Z" fill="white"/>
<path d="M188.933 33.3547C188.726 33.6767 188.458 33.9235 188.125 34.0952C187.793 34.2642 187.412 34.3501 186.988 34.3501C186.355 34.3501 185.832 34.1703 185.425 33.8135C185.017 33.4567 184.81 33.0006 184.81 32.4506C184.81 31.9005 185.014 31.4444 185.425 31.0822C185.835 30.72 186.355 30.5403 186.988 30.5403C187.383 30.5403 187.739 30.6154 188.061 30.7603C188.383 30.9078 188.64 31.1171 188.839 31.3854L188.391 31.6966C188.241 31.49 188.045 31.3344 187.801 31.2218C187.557 31.1117 187.286 31.0554 186.988 31.0554C186.527 31.0554 186.143 31.1869 185.843 31.4498C185.54 31.7127 185.39 32.0427 185.39 32.4398C185.39 32.8369 185.543 33.1669 185.846 33.4272C186.149 33.6901 186.532 33.8215 186.991 33.8215C187.313 33.8215 187.594 33.7572 187.839 33.6311C188.083 33.505 188.3 33.3064 188.485 33.0408L188.935 33.352L188.933 33.3547Z" fill="white"/>
<path d="M193.079 34.2374V32.3996L191.438 30.6369H192.165L193.358 31.914L194.533 30.6369H195.284L193.634 32.3915V34.2374H193.082H193.079Z" fill="white"/>
<g clip-path="url(#clip1_338_22884)">
<path d="M40.9546 18.376C38.3326 19.8125 35.7079 21.2516 33.086 22.6881C33.1074 27.3492 33.1287 32.0104 33.1501 36.6715C28.9459 34.3087 24.7443 31.9486 20.5401 29.5858C18.0357 30.9605 15.5313 32.3379 13.027 33.7126C13.027 36.8084 13.0296 39.9042 13.0323 43C15.5313 41.4454 18.0277 39.8935 20.5267 38.3389C23.0952 39.8505 25.6611 41.3622 28.2296 42.8711C32.4873 40.46 36.7423 38.0489 41 35.6378C40.984 29.8839 40.9706 24.1273 40.9546 18.3733V18.376Z" fill="white"/>
<path fill-rule="evenodd" clip-rule="evenodd" d="M7.9836 7.26815C12.1632 4.84525 16.3431 2.42212 20.5241 0C21.9676 0.836971 23.4111 1.67406 24.8549 2.51122C30.2331 5.62994 35.6131 8.74962 40.9947 11.8676C35.6549 14.9253 30.3151 17.9802 24.9753 21.0351L24.9582 21.0449C23.7044 20.3292 22.4499 19.6141 21.1954 18.8991C19.9415 18.1844 18.6876 17.4697 17.4344 16.7543C18.7788 15.9354 20.1232 15.1158 21.4676 14.2962C22.812 13.4766 24.1564 12.657 25.5008 11.8381C24.6759 11.3815 23.8518 10.9249 23.0276 10.4683C22.204 10.012 21.3804 9.55569 20.5562 9.09941C16.347 11.5398 12.1405 13.9829 7.93396 16.426L7.93277 16.4267L7.88478 16.3991C7.90075 16.4083 7.91672 16.4175 7.93269 16.4267C7.92601 20.38 7.92 24.3333 7.91399 28.2866C7.90797 32.2406 7.90196 36.1946 7.89528 40.1486C6.58429 39.3968 5.27398 38.6456 3.96366 37.8945C2.65334 37.1434 1.34303 36.3923 0.0320435 35.6405C0.0347162 27.7171 0.0347162 19.7964 0.0347162 11.873L0.036844 11.8742C0.0369211 11.8743 0.0369982 11.8743 0.0370754 11.8744C2.68587 10.3393 5.33466 8.80375 7.9836 7.26815Z" fill="white"/>
</g>
</g>
<defs>
<clipPath id="clip0_338_22884">
<rect width="196" height="43" fill="white"/>
</clipPath>
<clipPath id="clip1_338_22884">
<rect width="41" height="43" fill="white"/>
</clipPath>
</defs>
</svg>
