<svg width="196" height="42" viewBox="0 0 196 42" fill="none" xmlns="http://www.w3.org/2000/svg">
<path d="M47.0651 25.4615V13.061H54.3759C55.6154 13.061 56.5909 13.3597 57.305 13.9598C58.0164 14.5599 58.3748 15.3802 58.3748 16.4205C58.3748 17.4609 58.0299 18.3702 57.3401 19.0385C56.6502 19.7041 55.7313 20.0396 54.5861 20.0396H48.6496V25.4642H47.0678L47.0651 25.4615ZM48.6469 18.5878H54.2735C55.0738 18.5878 55.6801 18.4148 56.0924 18.0715C56.5047 17.7282 56.7095 17.2224 56.7095 16.5542C56.7095 15.8859 56.5047 15.3959 56.0924 15.0316C55.6801 14.6674 55.1007 14.4866 54.3543 14.4866H48.6469V18.5878Z" fill="#0095CD"/>
<path d="M64.1551 21.2712V25.4615H62.6083V15.8912H69.399C70.4068 15.8912 71.1964 16.127 71.7677 16.5987C72.3362 17.0704 72.6219 17.7256 72.6219 18.5642C72.6219 19.2455 72.3955 19.8352 71.9455 20.3331C71.4955 20.831 70.908 21.135 70.1832 21.2476L72.921 25.4589H71.2449L68.4504 21.2686H64.1524L64.1551 21.2712ZM64.1551 19.8666H69.399C69.9299 19.8666 70.3368 19.7539 70.617 19.5285C70.8973 19.3032 71.0374 18.9808 71.0374 18.5616C71.0374 18.1423 70.8973 17.8226 70.617 17.5998C70.3368 17.3797 69.9299 17.2696 69.399 17.2696H64.1551V19.864V19.8666Z" fill="#0095CD"/>
<path d="M79.7225 25.1392C79.5823 25.1497 78.3697 25.21 77.6206 24.319C77.2703 23.8997 77.1679 23.4489 77.1328 23.2052C77.1193 22.2749 77.1086 21.3446 77.0951 20.4143C77.1005 19.3006 77.1086 18.1868 77.114 17.0757C77.1867 16.8608 77.3349 16.5332 77.6394 16.2371C78.2296 15.6658 79.0488 15.6317 79.515 15.616C81.4228 15.5505 82.6382 15.6239 83.7187 15.6291C85.7425 15.637 86.4889 15.6868 87.9791 15.7864C88.2728 15.8073 88.8225 15.8519 89.2187 16.2371C89.5717 16.583 89.6876 17.0416 89.6822 17.7885C89.6768 18.7791 89.6741 19.7723 89.6687 20.7628V23.2996C89.6471 23.4725 89.5555 24.0097 89.0866 24.4683C88.5261 25.0134 87.8336 25.0475 87.68 25.0527C85.0284 25.0842 82.3768 25.113 79.7225 25.1444V25.1392ZM87.5614 23.3336C87.5614 21.3289 87.5587 19.3241 87.556 17.3194H79.3182V23.3336C82.0669 23.3336 84.8128 23.3336 87.5614 23.3336Z" fill="#0095CD"/>
<path d="M99.6958 21.1114V19.7303C101.717 19.7303 103.741 19.7303 105.762 19.7277V23.6219C105.584 23.939 105.255 24.4133 104.686 24.7409C104.059 25.1051 103.433 25.1182 103.113 25.1235C99.7335 25.168 96.0364 25.1313 95.8289 25.1287C95.4301 25.1392 94.848 25.0868 94.4034 24.7147C93.7243 24.146 93.7755 23.1712 93.8402 21.1507C93.8644 20.3724 93.9048 19.0123 93.9399 17.2093C93.9884 16.9001 94.115 16.431 94.5031 16.0904C94.8588 15.7785 95.2845 15.7077 96.3786 15.6527C97.028 15.6213 97.858 15.5977 98.8308 15.616C100.596 15.6501 100.604 15.5977 102.259 15.6527C104.352 15.7235 104.697 15.8283 105.004 16.0772C105.745 16.6774 105.816 17.7256 105.805 18.2785C105.015 18.2838 104.226 18.2864 103.433 18.2916C103.428 17.951 103.425 17.6103 103.42 17.2696H98.6287C97.7071 17.2644 96.7855 17.2617 95.8639 17.2565C95.8558 18.5144 95.8477 19.7696 95.8397 21.0275C95.8289 21.8268 95.8181 22.6261 95.8073 23.4253C97.311 23.4987 98.9063 23.5302 100.58 23.4987C101.614 23.4804 102.617 23.4358 103.582 23.3782C103.59 22.6235 103.598 21.8687 103.606 21.1166C102.302 21.1166 100.995 21.1166 99.6904 21.1166L99.6958 21.1114Z" fill="#0095CD"/>
<path d="M111.049 21.2712V25.4615H109.502V15.8912H116.293C117.3 15.8912 118.09 16.127 118.661 16.5987C119.23 17.0704 119.516 17.7256 119.516 18.5642C119.516 19.2455 119.289 19.8352 118.839 20.3331C118.389 20.831 117.802 21.135 117.077 21.2476L119.815 25.4589H118.139L115.344 21.2686H111.046L111.049 21.2712ZM111.049 19.8666H116.293C116.824 19.8666 117.23 19.7539 117.511 19.5285C117.791 19.3032 117.931 18.9808 117.931 18.5616C117.931 18.1423 117.791 17.8226 117.511 17.5998C117.23 17.3797 116.824 17.2696 116.293 17.2696H111.049V19.864V19.8666Z" fill="#0095CD"/>
<path d="M122.248 25.4615L127.26 15.8676H128.23L133.291 25.4615H131.639L130.356 23.0244H125.148L123.876 25.4615H122.248ZM125.819 21.756H129.677L127.759 18.082L125.819 21.756Z" fill="#0095CD"/>
<path d="M137.004 25.4615V15.8676H138.287L142.329 21.4835L146.371 15.8676H147.654V25.4615H146.118V18.5642L142.329 23.8997L138.551 18.5642V25.4615H137.004Z" fill="#0095CD"/>
<path d="M155.62 25.4615L151.462 13.061H153.022L156.185 22.6313L159.433 13.061H160.853L164.086 22.6103L167.263 13.061H168.778L164.631 25.4615H163.475L160.114 15.4745L156.786 25.4615H155.62Z" fill="#0095CD"/>
<path d="M172.041 25.4615V15.8676H181.295V17.2722H173.591V19.6648H178.649V21.0459H173.591V24.0779H181.723V25.4589H172.044L172.041 25.4615Z" fill="#0095CD"/>
<path d="M186.186 25.4615V15.8912H192.249C193.249 15.8912 194.009 16.0903 194.523 16.4913C195.041 16.8922 195.297 17.4819 195.297 18.2602C195.297 18.6507 195.216 18.9966 195.054 19.3006C194.892 19.6045 194.658 19.8483 194.348 20.0369C194.895 20.3357 195.307 20.7026 195.585 21.1323C195.863 21.5621 196 22.0469 196 22.5868C196 23.4778 195.693 24.1801 195.081 24.6937C194.469 25.2073 193.623 25.4642 192.545 25.4642H186.18L186.186 25.4615ZM192.203 17.2722H187.733V19.5312H192.227C192.721 19.5312 193.092 19.4368 193.343 19.2455C193.594 19.0542 193.718 18.7712 193.718 18.3965C193.718 18.0217 193.591 17.7413 193.343 17.5553C193.092 17.3692 192.712 17.2749 192.206 17.2749L192.203 17.2722ZM192.723 20.9332H187.733V24.0779H192.723C193.262 24.0779 193.68 23.939 193.976 23.6612C194.273 23.3834 194.421 22.9956 194.421 22.4924C194.421 21.9893 194.273 21.6145 193.976 21.342C193.68 21.0694 193.262 20.9332 192.723 20.9332Z" fill="#0095CD"/>
<path d="M47.0651 33.4412V29.9165H47.639V33.4412H47.0651Z" fill="#0095CD"/>
<path d="M51.2468 33.4412V29.9244H51.5423L53.8386 32.3956V29.9244H54.3919V33.4412H54.0964L51.8055 30.9779V33.4412H51.2468Z" fill="#0095CD"/>
<path d="M57.9882 33.4412V29.9244H58.2836L60.5799 32.3956V29.9244H61.1332V33.4412H60.8378L58.5468 30.9779V33.4412H57.9882Z" fill="#0095CD"/>
<path d="M66.623 33.5513C65.9811 33.5513 65.452 33.3731 65.0384 33.0193C64.6248 32.6655 64.418 32.22 64.418 31.6854C64.418 31.1508 64.6248 30.7027 65.0384 30.3542C65.452 30.003 65.9811 29.83 66.6257 29.83C67.2703 29.83 67.8101 30.0056 68.221 30.3542C68.632 30.7027 68.8415 31.1482 68.8415 31.688C68.8415 32.2279 68.6347 32.6707 68.221 33.0245C67.8074 33.3783 67.2756 33.5539 66.6284 33.5539L66.623 33.5513ZM66.623 33.0376C67.1038 33.0376 67.4986 32.9118 67.8021 32.6576C68.1056 32.4034 68.2586 32.0811 68.2586 31.688C68.2586 31.2949 68.1056 30.9752 67.7994 30.721C67.4932 30.4668 67.1011 30.3384 66.623 30.3384C66.1449 30.3384 65.7528 30.4642 65.4493 30.7184C65.1458 30.9726 64.9954 31.2949 64.9954 31.688C64.9954 32.0811 65.1458 32.4034 65.4493 32.6576C65.7528 32.9118 66.1422 33.0376 66.623 33.0376Z" fill="#0095CD"/>
<path d="M73.6866 33.4412H73.3938L71.5809 29.9244H72.1825L73.5389 32.5554L74.8737 29.9244H75.4941L73.6839 33.4412H73.6866Z" fill="#0095CD"/>
<path d="M77.5138 33.4412L79.3482 29.9244H79.7028L81.5533 33.4412H80.949L80.479 32.5476H78.5721L78.1074 33.4412H77.5112H77.5138ZM78.8191 32.0811H80.2319L79.5309 30.7341L78.8218 32.0811H78.8191Z" fill="#0095CD"/>
<path d="M84.9965 33.4412V30.4144H83.4736V29.9244H87.0833V30.4144H85.5578V33.4412H84.9965Z" fill="#0095CD"/>
<path d="M90.0081 33.4412V29.9165H90.5821V33.4412H90.0081Z" fill="#0095CD"/>
<path d="M95.7557 33.4412H95.463L93.6501 29.9244H94.2517L95.608 32.5554L96.9429 29.9244H97.5633L95.7531 33.4412H95.7557Z" fill="#0095CD"/>
<path d="M100.622 33.4412V29.9244H104.009V30.4406H101.189V31.3185H103.04V31.8243H101.189V32.9354H104.165V33.4412H100.622Z" fill="#0095CD"/>
<path d="M114.175 29.9244C114.763 29.9244 115.238 30.0895 115.598 30.417C115.958 30.7446 116.138 31.1718 116.138 31.6959C116.138 32.22 115.961 32.6498 115.606 32.9669C115.252 33.284 114.774 33.4412 114.172 33.4412H112.569V29.9244H114.172H114.175ZM114.183 30.4302H113.138V32.9354H114.183C114.613 32.9354 114.948 32.8227 115.193 32.6C115.437 32.3772 115.561 32.0733 115.561 31.688C115.561 31.3028 115.434 31.0145 115.179 30.7813C114.927 30.5481 114.594 30.4302 114.183 30.4302Z" fill="#0095CD"/>
<path d="M119.396 33.4412V29.9165H119.97V33.4412H119.396Z" fill="#0095CD"/>
<path d="M126.019 32.0733V31.5675H127.507V32.6315C127.298 32.9329 127.026 33.1635 126.691 33.3181C126.355 33.4753 125.965 33.5539 125.525 33.5539C124.859 33.5539 124.316 33.3784 123.892 33.0298C123.47 32.6787 123.258 32.2358 123.258 31.6986C123.258 31.1614 123.47 30.7159 123.897 30.3621C124.322 30.0083 124.864 29.8327 125.525 29.8327C125.941 29.8327 126.312 29.9035 126.634 30.0424C126.957 30.1813 127.225 30.3883 127.44 30.6608L127.005 30.9648C126.852 30.7709 126.645 30.6163 126.384 30.5062C126.124 30.3961 125.837 30.3385 125.525 30.3385C125.031 30.3385 124.628 30.4669 124.311 30.7211C123.994 30.9753 123.838 31.3002 123.838 31.6881C123.838 32.0759 123.997 32.4009 124.311 32.6551C124.625 32.9093 125.031 33.0377 125.528 33.0377C125.837 33.0377 126.124 32.9827 126.387 32.8726C126.65 32.7625 126.836 32.6236 126.938 32.4533V32.0733H126.019Z" fill="#0095CD"/>
<path d="M130.905 33.4412V29.9165H131.479V33.4412H130.905Z" fill="#0095CD"/>
<path d="M135.935 33.4412V30.4144H134.412V29.9244H138.022V30.4144H136.496V33.4412H135.935Z" fill="#0095CD"/>
<path d="M139.94 33.4412L141.774 29.9244H142.129L143.979 33.4412H143.375L142.905 32.5476H140.998L140.533 33.4412H139.937H139.94ZM141.245 32.0811H142.658L141.957 30.7341L141.248 32.0811H141.245Z" fill="#0095CD"/>
<path d="M146.872 33.4412V29.9244H147.438V32.9354H150.119V33.4412H146.872Z" fill="#0095CD"/>
<path d="M157.666 33.4412L159.5 29.9244H159.855L161.708 33.4412H161.104L160.634 32.5476H158.727L158.262 33.4412H157.666ZM158.971 32.0811H160.384L159.683 30.7341L158.974 32.0811H158.971Z" fill="#0095CD"/>
<path d="M167.053 32.0733V31.5675H168.541V32.6315C168.331 32.9329 168.06 33.1635 167.724 33.3181C167.388 33.4753 166.999 33.5539 166.558 33.5539C165.892 33.5539 165.35 33.3784 164.925 33.0298C164.504 32.6787 164.292 32.2358 164.292 31.6986C164.292 31.1614 164.504 30.7159 164.931 30.3621C165.355 30.0083 165.898 29.8327 166.558 29.8327C166.975 29.8327 167.345 29.9035 167.668 30.0424C167.99 30.1813 168.259 30.3883 168.473 30.6608L168.038 30.9648C167.885 30.7709 167.678 30.6163 167.418 30.5062C167.157 30.3961 166.87 30.3385 166.558 30.3385C166.064 30.3385 165.661 30.4669 165.344 30.7211C165.028 30.9753 164.872 31.3002 164.872 31.6881C164.872 32.0759 165.03 32.4009 165.344 32.6551C165.659 32.9093 166.064 33.0377 166.558 33.0377C166.867 33.0377 167.155 32.9827 167.418 32.8726C167.681 32.7625 167.866 32.6236 167.968 32.4533V32.0733H167.053Z" fill="#0095CD"/>
<path d="M171.927 33.4412V29.9244H175.314V30.4406H172.494V31.3185H174.345V31.8243H172.494V32.9354H175.47V33.4412H171.927Z" fill="#0095CD"/>
<path d="M178.636 33.4412V29.9244H178.932L181.228 32.3956V29.9244H181.782V33.4412H181.486L179.195 30.9779V33.4412H178.636Z" fill="#0095CD"/>
<path d="M189.194 32.579C188.987 32.8935 188.719 33.1346 188.386 33.3023C188.053 33.4674 187.671 33.5513 187.247 33.5513C186.613 33.5513 186.09 33.3757 185.681 33.0271C185.273 32.6786 185.066 32.2331 185.066 31.6959C185.066 31.1587 185.27 30.7132 185.681 30.3594C186.092 30.0056 186.613 29.83 187.247 29.83C187.642 29.83 187.999 29.9034 188.321 30.0449C188.644 30.1891 188.902 30.3935 189.1 30.6555L188.652 30.9595C188.501 30.7577 188.305 30.6057 188.061 30.4957C187.816 30.3882 187.545 30.3332 187.247 30.3332C186.785 30.3332 186.401 30.4616 186.1 30.7184C185.797 30.9752 185.646 31.2976 185.646 31.6854C185.646 32.0733 185.799 32.3956 186.103 32.6498C186.406 32.9066 186.791 33.035 187.25 33.035C187.572 33.035 187.854 32.9721 188.098 32.8489C188.343 32.7258 188.56 32.5319 188.746 32.2724L189.197 32.5764L189.194 32.579Z" fill="#0095CD"/>
<path d="M193.347 33.4412V31.6461L191.703 29.9244H192.431L193.626 31.1718L194.802 29.9244H195.554L193.902 31.6382V33.4412H193.349H193.347Z" fill="#0095CD"/>
<g clip-path="url(#clip0_821_25814)">
<path d="M41.0113 17.9487C38.3857 19.3517 35.7574 20.7574 33.1318 22.1605C33.1532 26.7132 33.1746 31.2659 33.196 35.8187C28.986 33.5108 24.7786 31.2056 20.5685 28.8978C18.0607 30.2405 15.5529 31.5859 13.045 32.9286C13.045 35.9524 13.0477 38.9762 13.0504 42C15.5529 40.4815 18.0527 38.9657 20.5552 37.4473C23.1272 38.9238 25.6966 40.4002 28.2687 41.8741C32.5323 39.5191 36.7932 37.164 41.0568 34.809C41.0407 29.1889 41.0273 23.5662 41.0113 17.9461V17.9487Z" fill="#0095CD"/>
<path fill-rule="evenodd" clip-rule="evenodd" d="M7.99464 7.09911C12.18 4.73256 16.3657 2.36579 20.5525 0C21.9971 0.817032 23.4418 1.63418 24.8867 2.4514C30.2732 5.49806 35.6615 8.54566 41.0514 11.5916C35.6987 14.5812 30.346 17.5682 24.9934 20.5551L24.9927 20.5555C23.7377 19.8567 22.4821 19.1586 21.2265 18.4606C19.9702 17.7621 18.714 17.0637 17.4585 16.3647C18.8047 15.5648 20.1509 14.7643 21.4971 13.9638C22.8434 13.1632 24.1897 12.3627 25.536 11.5628C24.7101 11.1168 23.8848 10.6708 23.0595 10.2248C22.2347 9.77916 21.41 9.33348 20.5846 8.88779C16.3706 11.2709 12.1592 13.6566 7.94787 16.0423L7.9437 16.0447L7.89777 16.0189C7.91306 16.0275 7.92834 16.0361 7.94363 16.0447C7.93694 19.9064 7.93091 23.7681 7.92489 27.6298C7.91887 31.4915 7.91285 35.3532 7.90616 39.2149C6.59114 38.4793 5.27678 37.7444 3.96243 37.0095C2.65253 36.2771 1.34262 35.5447 0.0320435 34.8116C0.0347199 27.0725 0.0347199 19.336 0.0347199 11.5969L0.0367219 11.598C0.0368413 11.5981 0.0369607 11.5981 0.0370801 11.5982C2.68955 10.0988 5.34201 8.599 7.99464 7.09911Z" fill="#0095CD"/>
</g>
<defs>
<clipPath id="clip0_821_25814">
<rect width="41.0567" height="42" fill="white"/>
</clipPath>
</defs>
</svg>
